<?xml version="1.0" encoding="utf-8"?>
<svg xmlns="http://www.w3.org/2000/svg" xmlns:xlink="http://www.w3.org/1999/xlink" style="margin: auto; background: none; display: block; z-index: 1; position: relative; shape-rendering: auto;" width="1896" height="1079" preserveAspectRatio="xMidYMid" viewBox="0 0 1896 1079">
<g transform="translate(948,539.5) scale(1,1) translate(-948,-539.5)"><path id="path0" d="M 721.4509538824178 608.662020342162
c 0 32.80054203787718 -8.025664541182714 9.42143228747536 -17.447096828658072 9.42143228747536
S 686.5567602251016 641.4625623800392 686.5567602251016 608.662020342162
s 8.025664541182714 -9.42143228747536 17.447096828658072 -9.42143228747536
S 721.4509538824178 575.8614783042848 721.4509538824178 608.662020342162
z" fill="none" stroke="none"></path>
<circle cx="0" cy="0" r="2.793764122418485" fill="#ffffff">
  <animateMotion begin="-5.323305459698173s" dur="10s" repeatCount="indefinite">
    <mpath xlink:href="#path0"></mpath>
  </animateMotion>
</circle><path id="path1" d="M 645.3191389217658 140.12779086095475
c 0 22.810602321388618 -5.581317589275938 6.551981517845667 -12.133299107121605 6.551981517845667
S 621.0525407075226 162.93839318234336 621.0525407075226 140.12779086095475
s 5.581317589275938 -6.551981517845667 12.133299107121605 -6.551981517845667
S 645.3191389217658 117.31718853956613 645.3191389217658 140.12779086095475
z" fill="none" stroke="none"></path>
<circle cx="0" cy="0" r="2.9056345209264114" fill="#ffffff">
  <animateMotion begin="-6.055086771480667s" dur="10s" repeatCount="indefinite">
    <mpath xlink:href="#path1"></mpath>
  </animateMotion>
</circle><path id="path2" d="M 1229.3342580128224 344.90578301659417
c 0 30.751128247618997 -7.5242122308003925 8.832770879635245 -16.356983110435635 8.832770879635245
S 1196.6202917919509 375.6569112642132 1196.6202917919509 344.90578301659417
s 7.5242122308003925 -8.832770879635245 16.356983110435635 -8.832770879635245
S 1229.3342580128224 314.15465476897515 1229.3342580128224 344.90578301659417
z" fill="none" stroke="none"></path>
<circle cx="0" cy="0" r="1.7578197041603003" fill="#ffffff">
  <animateMotion begin="-2.4074611805525925s" dur="10s" repeatCount="indefinite">
    <mpath xlink:href="#path2"></mpath>
  </animateMotion>
</circle><path id="path3" d="M 1522.0939528742858 228.4401771067755
c 0 36.29296526763205 -8.880193629314224 10.424575130064524 -19.304768759378746 10.424575130064524
S 1483.4844153555284 264.7331423744076 1483.4844153555284 228.4401771067755
s 8.880193629314224 -10.424575130064524 19.304768759378746 -10.424575130064524
S 1522.0939528742858 192.14721183914347 1522.0939528742858 228.4401771067755
z" fill="none" stroke="none"></path>
<circle cx="0" cy="0" r="2.384136084883533" fill="#ffffff">
  <animateMotion begin="-0.15682098812332068s" dur="10s" repeatCount="indefinite">
    <mpath xlink:href="#path3"></mpath>
  </animateMotion>
</circle><path id="path4" d="M 1524.2039428418668 71.97356103958326
c 0 24.765850822958196 -6.05972945668126 7.113595449147567 -13.173324905828828 7.113595449147567
S 1497.8572930302091 96.73941186254146 1497.8572930302091 71.97356103958326
s 6.05972945668126 -7.113595449147567 13.173324905828828 -7.113595449147567
S 1524.2039428418668 47.20771021662506 1524.2039428418668 71.97356103958326
z" fill="none" stroke="none"></path>
<circle cx="0" cy="0" r="2.8699599230782638" fill="#ffffff">
  <animateMotion begin="-6.74162917156103s" dur="10s" repeatCount="indefinite">
    <mpath xlink:href="#path4"></mpath>
  </animateMotion>
</circle><path id="path5" d="M 611.168186590296 685.4715688966198
c 0 36.44656065151473 -8.917775478562113 10.468692953094656 -19.38646843165677 10.468692953094656
S 572.3952497269825 721.9181295481345 572.3952497269825 685.4715688966198
s 8.917775478562113 -10.468692953094656 19.38646843165677 -10.468692953094656
S 611.168186590296 649.0250082451051 611.168186590296 685.4715688966198
z" fill="none" stroke="none"></path>
<circle cx="0" cy="0" r="1.868157738417711" fill="#ffffff">
  <animateMotion begin="-3.8878042182749306s" dur="10s" repeatCount="indefinite">
    <mpath xlink:href="#path5"></mpath>
  </animateMotion>
</circle><path id="path6" d="M 1473.1804161582388 967.9822569429226
c 0 34.74734400073651 -8.50200970230787 9.980620085317934 -18.482629787625804 9.980620085317934
S 1436.215156582987 1002.7296009436591 1436.215156582987 967.9822569429226
s 8.50200970230787 -9.980620085317934 18.482629787625804 -9.980620085317934
S 1473.1804161582388 933.2349129421862 1473.1804161582388 967.9822569429226
z" fill="none" stroke="none"></path>
<circle cx="0" cy="0" r="2.31403604401761" fill="#ffffff">
  <animateMotion begin="-2.9405500792371875s" dur="10s" repeatCount="indefinite">
    <mpath xlink:href="#path6"></mpath>
  </animateMotion>
</circle><path id="path7" d="M 1556.288399488598 1055.9891574709861
c 0 23.834942464198853 -5.831954007197591 6.846206878014565 -12.678160885212154 6.846206878014565
S 1530.9320777181736 1079.824099935185 1530.9320777181736 1055.9891574709861
s 5.831954007197591 -6.846206878014565 12.678160885212154 -6.846206878014565
S 1556.288399488598 1032.1542150067874 1556.288399488598 1055.9891574709861
z" fill="none" stroke="none"></path>
<circle cx="0" cy="0" r="1.8542180511899125" fill="#ffffff">
  <animateMotion begin="-0.07702370926545354s" dur="10s" repeatCount="indefinite">
    <mpath xlink:href="#path7"></mpath>
  </animateMotion>
</circle><path id="path8" d="M 962.5874526848874 29.1101467174773
c 0 28.000224172231295 -6.851118680439572 8.042617581385585 -14.893736261825158 8.042617581385585
S 932.7999801612369 57.11037088970859 932.7999801612369 29.1101467174773
s 6.851118680439572 -8.042617581385585 14.893736261825158 -8.042617581385585
S 962.5874526848874 1.109922545246004 962.5874526848874 29.1101467174773
z" fill="none" stroke="none"></path>
<circle cx="0" cy="0" r="2.764313037260923" fill="#ffffff">
  <animateMotion begin="-6.0372184365533315s" dur="10s" repeatCount="indefinite">
    <mpath xlink:href="#path8"></mpath>
  </animateMotion>
</circle><path id="path9" d="M 1031.101162281002 159.71821109516486
c 0 24.92441181005531 -6.098526293949703 7.159139562462697 -13.2576658564124 7.159139562462697
S 1004.5858305681771 184.64262290522018 1004.5858305681771 159.71821109516486
s 6.098526293949703 -7.159139562462697 13.2576658564124 -7.159139562462697
S 1031.101162281002 134.79379928510954 1031.101162281002 159.71821109516486
z" fill="none" stroke="none"></path>
<circle cx="0" cy="0" r="2.7093050194051" fill="#ffffff">
  <animateMotion begin="-5.540168442843408s" dur="10s" repeatCount="indefinite">
    <mpath xlink:href="#path9"></mpath>
  </animateMotion>
</circle><path id="path10" d="M 226.76057280790332 65.16382449168168
c 0 20.54003570891452 -5.025753418138658 5.899797490858425 -10.925550908997083 5.899797490858425
S 204.90947098990915 85.7038602005962 204.90947098990915 65.16382449168168
s 5.025753418138658 -5.899797490858425 10.925550908997083 -5.899797490858425
S 226.76057280790332 44.623788782767164 226.76057280790332 65.16382449168168
z" fill="none" stroke="none"></path>
<circle cx="0" cy="0" r="2.9048806971413086" fill="#ffffff">
  <animateMotion begin="-9.973859700183594s" dur="10s" repeatCount="indefinite">
    <mpath xlink:href="#path10"></mpath>
  </animateMotion>
</circle><path id="path11" d="M 1174.1221835854828 237.36118480196765
c 0 36.76981753406552 -8.99687024769688 10.56154333425286 -19.55841358194974 10.56154333425286
S 1135.0053564215834 274.1310023360332 1135.0053564215834 237.36118480196765
s 8.99687024769688 -10.56154333425286 19.55841358194974 -10.56154333425286
S 1174.1221835854828 200.59136726790214 1174.1221835854828 237.36118480196765
z" fill="none" stroke="none"></path>
<circle cx="0" cy="0" r="1.6586062641425756" fill="#ffffff">
  <animateMotion begin="-9.537383726568935s" dur="10s" repeatCount="indefinite">
    <mpath xlink:href="#path11"></mpath>
  </animateMotion>
</circle><path id="path12" d="M 1052.1030470001774 980.4938755252163
c 0 35.371467676696334 -8.654720814510805 10.159889651817032 -18.814610466327835 10.159889651817032
S 1014.4738260675217 1015.8653432019125 1014.4738260675217 980.4938755252163
s 8.654720814510805 -10.159889651817032 18.814610466327835 -10.159889651817032
S 1052.1030470001774 945.12240784852 1052.1030470001774 980.4938755252163
z" fill="none" stroke="none"></path>
<circle cx="0" cy="0" r="1.5144310895583908" fill="#ffffff">
  <animateMotion begin="-6.355488010876811s" dur="10s" repeatCount="indefinite">
    <mpath xlink:href="#path12"></mpath>
  </animateMotion>
</circle><path id="path13" d="M 1141.8953694300337 98.48896552145213
c 0 23.572706884597245 -5.767789982401453 6.770883892384315 -12.538673874785768 6.770883892384315
S 1116.8180216804624 122.06167240604938 1116.8180216804624 98.48896552145213
s 5.767789982401453 -6.770883892384315 12.538673874785768 -6.770883892384315
S 1141.8953694300337 74.91625863685488 1141.8953694300337 98.48896552145213
z" fill="none" stroke="none"></path>
<circle cx="0" cy="0" r="2.9188872273520987" fill="#ffffff">
  <animateMotion begin="-8.603922511076858s" dur="10s" repeatCount="indefinite">
    <mpath xlink:href="#path13"></mpath>
  </animateMotion>
</circle><path id="path14" d="M 144.63420912934174 927.1655491193648
c 0 32.18178223051416 -7.874265864913038 9.243703406637046 -17.117969271550084 9.243703406637046
S 110.39827058624157 959.3473313498789 110.39827058624157 927.1655491193648
s 7.874265864913038 -9.243703406637046 17.117969271550084 -9.243703406637046
S 144.63420912934174 894.9837668888506 144.63420912934174 927.1655491193648
z" fill="none" stroke="none"></path>
<circle cx="0" cy="0" r="1.6046305057445023" fill="#ffffff">
  <animateMotion begin="-4.291154894114932s" dur="10s" repeatCount="indefinite">
    <mpath xlink:href="#path14"></mpath>
  </animateMotion>
</circle><path id="path15" d="M 1456.1358595683048 826.9692066957383
c 0 26.635278901394035 -6.517142709915562 7.650558833379138 -14.167701543294699 7.650558833379138
S 1427.8004564817154 853.6044855971323 1427.8004564817154 826.9692066957383
s 6.517142709915562 -7.650558833379138 14.167701543294699 -7.650558833379138
S 1456.1358595683048 800.3339277943443 1456.1358595683048 826.9692066957383
z" fill="none" stroke="none"></path>
<circle cx="0" cy="0" r="2.749935841160976" fill="#ffffff">
  <animateMotion begin="-7.606167517834052s" dur="10s" repeatCount="indefinite">
    <mpath xlink:href="#path15"></mpath>
  </animateMotion>
</circle><path id="path16" d="M 26.311300541401657 404.5643673329682
c 0 18.845556120803682 -4.611146710409411 5.413085268741484 -10.024231979150894 5.413085268741484
S 6.262836583099869 423.40992345377185 6.262836583099869 404.5643673329682
s 4.611146710409411 -5.413085268741484 10.024231979150894 -5.413085268741484
S 26.311300541401657 385.7188112121645 26.311300541401657 404.5643673329682
z" fill="none" stroke="none"></path>
<circle cx="0" cy="0" r="2.8656212115388344" fill="#ffffff">
  <animateMotion begin="-5.5683455641932404s" dur="10s" repeatCount="indefinite">
    <mpath xlink:href="#path16"></mpath>
  </animateMotion>
</circle><path id="path17" d="M 831.0701804590115 119.56442937500361
c 0 28.228007736175286 -6.906852956723739 8.108044775284391 -15.01489773200813 8.108044775284391
S 801.0403849949953 147.7924371111789 801.0403849949953 119.56442937500361
s 6.906852956723739 -8.108044775284391 15.01489773200813 -8.108044775284391
S 831.0701804590115 91.33642163882833 831.0701804590115 119.56442937500361
z" fill="none" stroke="none"></path>
<circle cx="0" cy="0" r="1.5190844280971283" fill="#ffffff">
  <animateMotion begin="-8.560398412313212s" dur="10s" repeatCount="indefinite">
    <mpath xlink:href="#path17"></mpath>
  </animateMotion>
</circle><path id="path18" d="M 711.6636511305951 294.80681710317464
c 0 30.382607500456356 -7.434042260749958 8.726919175662996 -16.160961436412954 8.726919175662996
S 679.3417282577691 325.189424603631 679.3417282577691 294.80681710317464
s 7.434042260749958 -8.726919175662996 16.160961436412954 -8.726919175662996
S 711.6636511305951 264.4242096027183 711.6636511305951 294.80681710317464
z" fill="none" stroke="none"></path>
<circle cx="0" cy="0" r="1.742509233170451" fill="#ffffff">
  <animateMotion begin="-5.088207248407075s" dur="10s" repeatCount="indefinite">
    <mpath xlink:href="#path18"></mpath>
  </animateMotion>
</circle><path id="path19" d="M 211.12012669742268 956.9457379117649
c 0 35.22063207395579 -8.617814230861523 10.11656453188092 -18.734378762742445 10.11656453188092
S 173.6513691719378 992.1663699857207 173.6513691719378 956.9457379117649
s 8.617814230861523 -10.11656453188092 18.734378762742445 -10.11656453188092
S 211.12012669742268 921.7251058378091 211.12012669742268 956.9457379117649
z" fill="none" stroke="none"></path>
<circle cx="0" cy="0" r="1.5653762543658307" fill="#ffffff">
  <animateMotion begin="-4.299407697002282s" dur="10s" repeatCount="indefinite">
    <mpath xlink:href="#path19"></mpath>
  </animateMotion>
</circle><path id="path20" d="M 703.5381714646575 407.98633343474336
c 0 27.736965382439365 -6.786704295703248 7.9670006949559875 -14.753704990659235 7.9670006949559875
S 674.030761483339 435.7232988171827 674.030761483339 407.98633343474336
s 6.786704295703248 -7.9670006949559875 14.753704990659235 -7.9670006949559875
S 703.5381714646575 380.249368052304 703.5381714646575 407.98633343474336
z" fill="none" stroke="none"></path>
<circle cx="0" cy="0" r="2.716611266180445" fill="#ffffff">
  <animateMotion begin="-4.951397490304128s" dur="10s" repeatCount="indefinite">
    <mpath xlink:href="#path20"></mpath>
  </animateMotion>
</circle><path id="path21" d="M 762.3286284282002 572.0288979406603
c 0 21.20273859340292 -5.187904123917735 6.090148319381689 -11.278052443299424 6.090148319381689
S 739.7725235416013 593.2316365340632 739.7725235416013 572.0288979406603
s 5.187904123917735 -6.090148319381689 11.278052443299424 -6.090148319381689
S 762.3286284282002 550.8261593472573 762.3286284282002 572.0288979406603
z" fill="none" stroke="none"></path>
<circle cx="0" cy="0" r="2.3170886976678373" fill="#ffffff">
  <animateMotion begin="-9.669473269573439s" dur="10s" repeatCount="indefinite">
    <mpath xlink:href="#path21"></mpath>
  </animateMotion>
</circle><path id="path22" d="M 281.00709393283495 634.5722263034875
c 0 20.389320714345295 -4.98887634499938 5.856507013694925 -10.845383358694304 5.856507013694925
S 259.3163272154464 654.9615470178328 259.3163272154464 634.5722263034875
s 4.98887634499938 -5.856507013694925 10.845383358694304 -5.856507013694925
S 281.00709393283495 614.1829055891421 281.00709393283495 634.5722263034875
z" fill="none" stroke="none"></path>
<circle cx="0" cy="0" r="1.6637672699255566" fill="#ffffff">
  <animateMotion begin="-3.144652705846762s" dur="10s" repeatCount="indefinite">
    <mpath xlink:href="#path22"></mpath>
  </animateMotion>
</circle><path id="path23" d="M 1406.6739968933475 985.1660153576103
c 0 31.51352673689042 -7.710756542005101 9.051757679745121 -16.762514221750223 9.051757679745121
S 1373.148968449847 1016.6795420945007 1373.148968449847 985.1660153576103
s 7.710756542005101 -9.051757679745121 16.762514221750223 -9.051757679745121
S 1406.6739968933475 953.6524886207199 1406.6739968933475 985.1660153576103
z" fill="none" stroke="none"></path>
<circle cx="0" cy="0" r="2.3615831516602253" fill="#ffffff">
  <animateMotion begin="-1.1890736947657143s" dur="10s" repeatCount="indefinite">
    <mpath xlink:href="#path23"></mpath>
  </animateMotion>
</circle><path id="path24" d="M 1480.1535293458633 955.8603838065621
c 0 36.8580113488167 -9.018449585348767 10.586875600192032 -19.6053251855408 10.586875600192032
S 1440.9428789747817 992.7183951553789 1440.9428789747817 955.8603838065621
s 9.018449585348767 -10.586875600192032 19.6053251855408 -10.586875600192032
S 1480.1535293458633 919.0023724577454 1480.1535293458633 955.8603838065621
z" fill="none" stroke="none"></path>
<circle cx="0" cy="0" r="1.6304573038876113" fill="#ffffff">
  <animateMotion begin="-1.8190837317908093s" dur="10s" repeatCount="indefinite">
    <mpath xlink:href="#path24"></mpath>
  </animateMotion>
</circle><path id="path25" d="M 690.2349856540309 527.748448562676
c 0 33.175030297715686 -8.117294647313411 9.528998064237484 -17.646292711550895 9.528998064237484
S 654.942400230929 560.9234788603917 654.942400230929 527.748448562676
s 8.117294647313411 -9.528998064237484 17.646292711550895 -9.528998064237484
S 690.2349856540309 494.5734182649603 690.2349856540309 527.748448562676
z" fill="none" stroke="none"></path>
<circle cx="0" cy="0" r="2.250764861431299" fill="#ffffff">
  <animateMotion begin="-4.260406841559099s" dur="10s" repeatCount="indefinite">
    <mpath xlink:href="#path25"></mpath>
  </animateMotion>
</circle><path id="path26" d="M 652.3355961267073 863.4110600683889
c 0 29.56993006657512 -7.235195654587529 8.493490551037535 -15.728686205625063 8.493490551037535
S 620.8782237154571 892.980990134964 620.8782237154571 863.4110600683889
s 7.235195654587529 -8.493490551037535 15.728686205625063 -8.493490551037535
S 652.3355961267073 833.8411300018138 652.3355961267073 863.4110600683889
z" fill="none" stroke="none"></path>
<circle cx="0" cy="0" r="2.976210894854839" fill="#ffffff">
  <animateMotion begin="-8.97424040903762s" dur="10s" repeatCount="indefinite">
    <mpath xlink:href="#path26"></mpath>
  </animateMotion>
</circle><path id="path27" d="M 858.6194771036719 162.1074005425366
c 0 20.994823363784647 -5.137031248585605 6.030427987470059 -11.167459236055663 6.030427987470059
S 836.2845586315607 183.10222390632123 836.2845586315607 162.1074005425366
s 5.137031248585605 -6.030427987470059 11.167459236055663 -6.030427987470059
S 858.6194771036719 141.11257717875196 858.6194771036719 162.1074005425366
z" fill="none" stroke="none"></path>
<circle cx="0" cy="0" r="1.624086630216866" fill="#ffffff">
  <animateMotion begin="-6.113106944406955s" dur="10s" repeatCount="indefinite">
    <mpath xlink:href="#path27"></mpath>
  </animateMotion>
</circle><path id="path28" d="M 1357.957230841285 222.79549572842595
c 0 33.687372142678996 -8.242654885974646 9.676160083535457 -17.918814969510105 9.676160083535457
S 1322.119600902265 256.48286787110493 1322.119600902265 222.79549572842595
s 8.242654885974646 -9.676160083535457 17.918814969510105 -9.676160083535457
S 1357.957230841285 189.10812358574697 1357.957230841285 222.79549572842595
z" fill="none" stroke="none"></path>
<circle cx="0" cy="0" r="2.3790003188500064" fill="#ffffff">
  <animateMotion begin="-9.06348039195608s" dur="10s" repeatCount="indefinite">
    <mpath xlink:href="#path28"></mpath>
  </animateMotion>
</circle><path id="path29" d="M 352.82825069701846 689.3729251652862
c 0 32.562659911575246 -7.9674593400662825 9.353104442686506 -17.32056378275279 9.353104442686506
S 318.18712313151286 721.9355850768615 318.18712313151286 689.3729251652862
s 7.9674593400662825 -9.353104442686506 17.32056378275279 -9.353104442686506
S 352.82825069701846 656.810265253711 352.82825069701846 689.3729251652862
z" fill="none" stroke="none"></path>
<circle cx="0" cy="0" r="2.0731129618878814" fill="#ffffff">
  <animateMotion begin="-4.248876433878934s" dur="10s" repeatCount="indefinite">
    <mpath xlink:href="#path29"></mpath>
  </animateMotion>
</circle><path id="path30" d="M 139.8689120724046 532.6922861904895
c 0 33.92812101096871 -8.301561523960428 9.745311354214417 -18.046872878174845 9.745311354214417
S 103.77516631605494 566.6204072014582 103.77516631605494 532.6922861904895
s 8.301561523960428 -9.745311354214417 18.046872878174845 -9.745311354214417
S 139.8689120724046 498.76416517952083 139.8689120724046 532.6922861904895
z" fill="none" stroke="none"></path>
<circle cx="0" cy="0" r="2.404718406994269" fill="#ffffff">
  <animateMotion begin="-4.806883434153988s" dur="10s" repeatCount="indefinite">
    <mpath xlink:href="#path30"></mpath>
  </animateMotion>
</circle><path id="path31" d="M 1083.385881564959 540.3526790520998
c 0 35.36897370209801 -8.654110586683554 10.159173297411131 -18.813283884094684 10.159173297411131
S 1045.7593137967694 575.7216527541979 1045.7593137967694 540.3526790520998
s 8.654110586683554 -10.159173297411131 18.813283884094684 -10.159173297411131
S 1083.385881564959 504.9837053500018 1083.385881564959 540.3526790520998
z" fill="none" stroke="none"></path>
<circle cx="0" cy="0" r="1.5374506599548756" fill="#ffffff">
  <animateMotion begin="-4.524741750888362s" dur="10s" repeatCount="indefinite">
    <mpath xlink:href="#path31"></mpath>
  </animateMotion>
</circle><path id="path32" d="M 1441.9790327510095 309.5854150170425
c 0 29.346828399642387 -7.180606948848668 8.42940815734409 -15.610015106192758 8.42940815734409
S 1410.759002538624 338.9322434166849 1410.759002538624 309.5854150170425
s 7.180606948848668 -8.42940815734409 15.610015106192758 -8.42940815734409
S 1441.9790327510095 280.23858661740013 1441.9790327510095 309.5854150170425
z" fill="none" stroke="none"></path>
<circle cx="0" cy="0" r="2.322334640551869" fill="#ffffff">
  <animateMotion begin="-9.843971084511438s" dur="10s" repeatCount="indefinite">
    <mpath xlink:href="#path32"></mpath>
  </animateMotion>
</circle><path id="path33" d="M 148.38009632493598 695.8517163819749
c 0 25.76354050232398 -6.30384501652608 7.400165888965399 -13.70401090549148 7.400165888965399
S 120.972074513953 721.6152568842989 120.972074513953 695.8517163819749
s 6.30384501652608 -7.400165888965399 13.70401090549148 -7.400165888965399
S 148.38009632493598 670.088175879651 148.38009632493598 695.8517163819749
z" fill="none" stroke="none"></path>
<circle cx="0" cy="0" r="1.6493280809033375" fill="#ffffff">
  <animateMotion begin="-3.9991817747592306s" dur="10s" repeatCount="indefinite">
    <mpath xlink:href="#path33"></mpath>
  </animateMotion>
</circle><path id="path34" d="M 862.0463856765535 867.1498058440018
c 0 19.03503042095678 -4.657507443425595 5.467508737934395 -10.125016181359989 5.467508737934395
S 841.7963533138335 886.1848362649586 841.7963533138335 867.1498058440018
s 4.657507443425595 -5.467508737934395 10.125016181359989 -5.467508737934395
S 862.0463856765535 848.114775423045 862.0463856765535 867.1498058440018
z" fill="none" stroke="none"></path>
<circle cx="0" cy="0" r="1.5614331149702299" fill="#ffffff">
  <animateMotion begin="-3.798485844353068s" dur="10s" repeatCount="indefinite">
    <mpath xlink:href="#path34"></mpath>
  </animateMotion>
</circle><path id="path35" d="M 1738.9092843524938 961.0066752143347
c 0 34.014803637150145 -8.32277110270695 9.770209555351638 -18.09298065805859 9.770209555351638
S 1702.7233230363765 995.0214788514849 1702.7233230363765 961.0066752143347
s 8.32277110270695 -9.770209555351638 18.09298065805859 -9.770209555351638
S 1738.9092843524938 926.9918715771845 1738.9092843524938 961.0066752143347
z" fill="none" stroke="none"></path>
<circle cx="0" cy="0" r="2.119370366479427" fill="#ffffff">
  <animateMotion begin="-5.505234599654651s" dur="10s" repeatCount="indefinite">
    <mpath xlink:href="#path35"></mpath>
  </animateMotion>
</circle><path id="path36" d="M 1074.514382726494 486.3208532265847
c 0 20.61924687746702 -5.045134874273844 5.9225496350171225 -10.967684509290967 5.9225496350171225
S 1052.5790137079118 506.9401001040517 1052.5790137079118 486.3208532265847
s 5.045134874273844 -5.9225496350171225 10.967684509290967 -5.9225496350171225
S 1074.514382726494 465.7016063491177 1074.514382726494 486.3208532265847
z" fill="none" stroke="none"></path>
<circle cx="0" cy="0" r="1.6491121681343666" fill="#ffffff">
  <animateMotion begin="-3.018657796775448s" dur="10s" repeatCount="indefinite">
    <mpath xlink:href="#path36"></mpath>
  </animateMotion>
</circle><path id="path37" d="M 1434.585864033567 866.876882402069
c 0 36.35890600477132 -8.896328064997238 10.443515554561976 -19.339843619559215 10.443515554561976
S 1395.9061767944488 903.2357884068404 1395.9061767944488 866.876882402069
s 8.896328064997238 -10.443515554561976 19.339843619559215 -10.443515554561976
S 1434.585864033567 830.5179763972976 1434.585864033567 866.876882402069
z" fill="none" stroke="none"></path>
<circle cx="0" cy="0" r="1.9084104134009185" fill="#ffffff">
  <animateMotion begin="-3.596732834523424s" dur="10s" repeatCount="indefinite">
    <mpath xlink:href="#path37"></mpath>
  </animateMotion>
</circle><path id="path38" d="M 1547.1407336849625 704.9198443654261
c 0 26.77077481956429 -6.550295966489135 7.689477873704638 -14.239773840193772 7.689477873704638
S 1518.661186004575 731.6906191849904 1518.661186004575 704.9198443654261
s 6.550295966489135 -7.689477873704638 14.239773840193772 -7.689477873704638
S 1547.1407336849625 678.1490695458618 1547.1407336849625 704.9198443654261
z" fill="none" stroke="none"></path>
<circle cx="0" cy="0" r="1.6398603881380027" fill="#ffffff">
  <animateMotion begin="-9.51171031826286s" dur="10s" repeatCount="indefinite">
    <mpath xlink:href="#path38"></mpath>
  </animateMotion>
</circle><path id="path39" d="M 1359.63991358762 586.1237292380388
c 0 28.189436158391374 -6.897415230244697 8.096965705069863 -14.99438093531456 8.096965705069863
S 1329.6511517169906 614.3131653964301 1329.6511517169906 586.1237292380388
s 6.897415230244697 -8.096965705069863 14.99438093531456 -8.096965705069863
S 1359.63991358762 557.9342930796474 1359.63991358762 586.1237292380388
z" fill="none" stroke="none"></path>
<circle cx="0" cy="0" r="2.0071457708825764" fill="#ffffff">
  <animateMotion begin="-6.637587060051942s" dur="10s" repeatCount="indefinite">
    <mpath xlink:href="#path39"></mpath>
  </animateMotion>
</circle><path id="path40" d="M 1520.0444076398057 151.6746516405147
c 0 19.137833553653977 -4.682661401425973 5.497037297326143 -10.179698698752116 5.497037297326143
S 1499.6850102423014 170.8124851941687 1499.6850102423014 151.6746516405147
s 4.682661401425973 -5.497037297326143 10.179698698752116 -5.497037297326143
S 1520.0444076398057 132.5368180868607 1520.0444076398057 151.6746516405147
z" fill="none" stroke="none"></path>
<circle cx="0" cy="0" r="1.5760261012014536" fill="#ffffff">
  <animateMotion begin="-1.6588065132489094s" dur="10s" repeatCount="indefinite">
    <mpath xlink:href="#path40"></mpath>
  </animateMotion>
</circle><path id="path41" d="M 235.02555506648758 555.3946727172356
c 0 36.47384882668815 -8.924452372487524 10.476531045963617 -19.40098341845114 10.476531045963617
S 196.2235882295853 591.8685215439237 196.2235882295853 555.3946727172356
s 8.924452372487524 -10.476531045963617 19.40098341845114 -10.476531045963617
S 235.02555506648758 518.9208238905475 235.02555506648758 555.3946727172356
z" fill="none" stroke="none"></path>
<circle cx="0" cy="0" r="1.625952432920169" fill="#ffffff">
  <animateMotion begin="-0.25446009695013316s" dur="10s" repeatCount="indefinite">
    <mpath xlink:href="#path41"></mpath>
  </animateMotion>
</circle><path id="path42" d="M 1155.8031549836512 507.82606135222807
c 0 35.329705199370004 -8.644502336016062 10.147894046627554 -18.792396382643616 10.147894046627554
S 1118.218362218364 543.155766551598 1118.218362218364 507.82606135222807
s 8.644502336016062 -10.147894046627554 18.792396382643616 -10.147894046627554
S 1155.8031549836512 472.4963561528581 1155.8031549836512 507.82606135222807
z" fill="none" stroke="none"></path>
<circle cx="0" cy="0" r="1.8414497256875535" fill="#ffffff">
  <animateMotion begin="-9.068785951479576s" dur="10s" repeatCount="indefinite">
    <mpath xlink:href="#path42"></mpath>
  </animateMotion>
</circle><path id="path43" d="M 1734.7646234603405 650.4917555004811
c 0 19.406152509233294 -4.7483139118336775 5.57410763563084 -10.322421547464518 5.57410763563084
S 1714.1197803654115 669.8979080097143 1714.1197803654115 650.4917555004811
s 4.7483139118336775 -5.57410763563084 10.322421547464518 -5.57410763563084
S 1734.7646234603405 631.0856029912478 1734.7646234603405 650.4917555004811
z" fill="none" stroke="none"></path>
<circle cx="0" cy="0" r="1.8336813699081453" fill="#ffffff">
  <animateMotion begin="-3.6097695634573213s" dur="10s" repeatCount="indefinite">
    <mpath xlink:href="#path43"></mpath>
  </animateMotion>
</circle><path id="path44" d="M 1847.768857909323 1030.0464665577488
c 0 21.79997649198696 -5.334036801230852 6.261695375357958 -11.59573217658881 6.261695375357958
S 1824.5773935561454 1051.8464430497356 1824.5773935561454 1030.0464665577488
s 5.334036801230852 -6.261695375357958 11.59573217658881 -6.261695375357958
S 1847.768857909323 1008.2464900657618 1847.768857909323 1030.0464665577488
z" fill="none" stroke="none"></path>
<circle cx="0" cy="0" r="2.3004160697444487" fill="#ffffff">
  <animateMotion begin="-4.400771243892714s" dur="10s" repeatCount="indefinite">
    <mpath xlink:href="#path44"></mpath>
  </animateMotion>
</circle><path id="path45" d="M 1380.200686578844 254.41311710219935
c 0 35.663078539404104 -8.726072408577599 10.243650218765008 -18.969722627342605 10.243650218765008
S 1342.2612413241586 290.0761956416035 1342.2612413241586 254.41311710219935
s 8.726072408577599 -10.243650218765008 18.969722627342605 -10.243650218765008
S 1380.200686578844 218.75003856279525 1380.200686578844 254.41311710219935
z" fill="none" stroke="none"></path>
<circle cx="0" cy="0" r="1.5826428531328585" fill="#ffffff">
  <animateMotion begin="-1.0203749771883164s" dur="10s" repeatCount="indefinite">
    <mpath xlink:href="#path45"></mpath>
  </animateMotion>
</circle></g>
</svg>